<svg xmlns="http://www.w3.org/2000/svg" viewBox="0 0 96 120" x="0px" y="0px"><title>Artboard 25</title><g><path d="M55.84,16.44a7.68,7.68,0,0,1,0,3.12,7.82,7.82,0,0,1-1.19,2.88,8.35,8.35,0,0,1-1,1.22A8.07,8.07,0,0,1,48,26a7.42,7.42,0,0,1-1.56-.16,7.8,7.8,0,0,1-1.5-.45,8,8,0,0,1-1.38-.74,8.4,8.4,0,0,1-1.22-1,7.75,7.75,0,0,1-1-1.22,8,8,0,0,1-.74-1.38,7.84,7.84,0,0,1-.45-1.5,7.7,7.7,0,0,1,0-3.12,7.86,7.86,0,0,1,.45-1.5,8,8,0,0,1,.74-1.38,7.6,7.6,0,0,1,2.21-2.21,8,8,0,0,1,1.38-.74,7.87,7.87,0,0,1,1.5-.45,8,8,0,0,1,7.22,2.18,8.39,8.39,0,0,1,1,1.22,8,8,0,0,1,.74,1.38A7.86,7.86,0,0,1,55.84,16.44Zm-.45,28.5a8,8,0,0,0-.74-1.38,7.61,7.61,0,0,0-2.21-2.21,8,8,0,0,0-1.38-.74,7.88,7.88,0,0,0-1.5-.45,8,8,0,0,0-7.22,2.18,8.42,8.42,0,0,0-1,1.22,8,8,0,0,0-.74,1.38,7.86,7.86,0,0,0-.45,1.5A7.46,7.46,0,0,0,40,48a8,8,0,0,0,8,8,7.42,7.42,0,0,0,1.56-.16,7.81,7.81,0,0,0,1.5-.45,8,8,0,0,0,1.38-.74,8.4,8.4,0,0,0,1.22-1A8.07,8.07,0,0,0,56,48a7.46,7.46,0,0,0-.16-1.56A7.86,7.86,0,0,0,55.39,44.94Zm0,30a8,8,0,0,0-.74-1.38,8.39,8.39,0,0,0-1-1.22,7.75,7.75,0,0,0-1.22-1,8,8,0,0,0-1.38-.74,8,8,0,0,0-7.5.74,7.75,7.75,0,0,0-1.22,1,8.42,8.42,0,0,0-1,1.22,8,8,0,0,0-.74,1.38,7.86,7.86,0,0,0-.45,1.5,7.7,7.7,0,0,0,0,3.12,7.84,7.84,0,0,0,.45,1.5,8,8,0,0,0,.74,1.38,8.38,8.38,0,0,0,1,1.22,7.74,7.74,0,0,0,1.22,1,8,8,0,0,0,1.38.74,7.8,7.8,0,0,0,1.5.45,7.68,7.68,0,0,0,3.12,0,7.81,7.81,0,0,0,1.5-.45,8,8,0,0,0,1.38-.74,7.74,7.74,0,0,0,1.22-1,8.35,8.35,0,0,0,1-1.22,7.82,7.82,0,0,0,1.19-2.88,7.68,7.68,0,0,0,0-3.12A7.86,7.86,0,0,0,55.39,74.94Z"/></g><text x="0" y="111" fill="#000000" font-size="5px" font-weight="bold" font-family="'Helvetica Neue', Helvetica, Arial-Unicode, Arial, Sans-serif">Created by olcay kurtulus</text><text x="0" y="116" fill="#000000" font-size="5px" font-weight="bold" font-family="'Helvetica Neue', Helvetica, Arial-Unicode, Arial, Sans-serif">from the Noun Project</text></svg>